<svg xmlns="http://www.w3.org/2000/svg" viewBox="0 0 343.43 481.07"><defs><style>.cls-1{fill:#f4aa67;}.cls-2{fill:#fa8605;}.cls-3{opacity:0.68;}.cls-4{fill:#d17820;}.cls-5{font-size:77.37px;fill:#5b4a3f;font-family:Montserrat-ExtraBold, Montserrat;font-weight:800;}.cls-6{letter-spacing:-0.01em;}</style></defs><title>Ativo 1</title><g id="Camada_2" data-name="Camada 2"><g id="Camada_1-2" data-name="Camada 1"><path class="cls-1" d="M215.43,256H.43V128a128,128,0,0,1,128-128h87a128,128,0,0,1,128,128h0A128,128,0,0,1,215.43,256Z"/><path class="cls-2" d="M215.43,388H.43V260a128,128,0,0,1,128-128h87a128,128,0,0,1,128,128h0A128,128,0,0,1,215.43,388Z"/><g class="cls-3"><path class="cls-4" d="M127.93,132A128,128,0,0,0,0,256H214.93a127.93,127.93,0,0,0,109.69-62,127.93,127.93,0,0,0-109.69-62Z"/></g><text class="cls-5" transform="translate(0.07 460.33)">BaseA<tspan class="cls-6" x="260.89" y="0">P</tspan><tspan x="317.14" y="0">I</tspan></text></g></g></svg>